<?xml version="1.0" encoding="utf-8"?>
<!-- Generator: Adobe Illustrator 26.1.0, SVG Export Plug-In . SVG Version: 6.00 Build 0)  -->
<svg version="1.1" id="a" xmlns="http://www.w3.org/2000/svg" xmlns:xlink="http://www.w3.org/1999/xlink" x="0px" y="0px"
	 viewBox="0 0 22.9 22.9" style="enable-background:new 0 0 22.9 22.9;" xml:space="preserve">
<style type="text/css">
	.st0{fill:#FFFFFF;}
</style>
<g>
	<polygon points="9.1,21.5 9.1,15.4 3.8,18.5 1.5,14.5 6.8,11.4 1.5,8.4 3.8,4.4 9.1,7.4 9.1,1.3 13.7,1.3 13.7,7.4 19.1,4.4 
		21.4,8.4 16.1,11.4 21.4,14.5 19.1,18.5 13.8,15.4 13.8,21.5 	"/>
	<path class="st0" d="M13.4,1.7v6.4L19,4.9l1.9,3.3l-5.6,3.2l5.6,3.2L19,18l-5.6-3.2v0h0l0,0v6.4H9.5v-6.4L3.9,18L2,14.6l5.6-3.2
		L2,8.2l1.9-3.3l5.6,3.2V1.7H13.4 M14.1,0.9h-0.8H9.5H8.7v0.7v5.1L4.3,4.2L3.6,3.9L3.2,4.5L1.3,7.9L1,8.5l0.7,0.4l4.4,2.5L1.6,14
		L1,14.3L1.3,15l1.9,3.4L3.6,19l0.7-0.4l4.4-2.6v5.1v0.8h0.8h3.9h0.8v-0.8v-5.1l4.4,2.6l0.7,0.4l0.4-0.7l1.9-3.4l0.4-0.7L21.2,14
		l-4.4-2.5l4.4-2.5l0.6-0.4l-0.4-0.7l-1.9-3.3l-0.4-0.7l-0.7,0.4l-4.5,2.6V1.7V0.9L14.1,0.9z"/>
</g>
</svg>
